<svg width="1257" height="1257" viewBox="0 0 1257 1257" fill="none" xmlns="http://www.w3.org/2000/svg">
<circle cx="628.125" cy="628.125" r="628.125" fill="#F5F4F1"/>
<path d="M610.875 0H654.625L677.125 1.25L700.25 3.75L727.125 7.5L744 10L759 12.5L777.125 16.875L792.75 21.25L801.5 23.75L829.625 32.5L845.25 38.125L866.5 46.25L877.75 51.25L895.875 60L915.875 70L930.875 78.125L941.5 84.375L952.75 90.625L962.75 96.875L973.375 103.75L982.125 110L987.75 113.75L995.875 120L1001.5 124.375L1008.38 129.375L1016.5 135.625L1024.62 142.5L1033.38 149.375L1040.88 156.25L1047.75 161.875L1053.38 167.5L1058.38 171.875L1067.75 180.625L1074.62 187.5L1079 192.5L1085.88 199.375L1091.5 206.25L1099 214.375L1104.62 221.25L1112.12 230L1117.75 236.875L1124 245L1130.25 252.5L1140.25 266.25L1146.5 274.375L1153.38 284.375L1160.25 295L1164.62 301.875L1166.5 305L1172.75 315.625L1179 326.875L1184.62 336.875L1192.12 351.875L1195.25 359.375L1200.25 369.375L1205.25 380.625L1212.12 398.125L1217.75 412.5L1222.12 425L1225.25 435L1231.5 454.375L1235.88 471.25L1239 481.875L1242.12 496.25L1245.25 511.875L1248.38 528.75L1250.88 545L1252.12 552.5L1254.62 584.375L1255.88 601.875L1256.5 622.5V640L1255.25 671.875L1254 685L1250.88 710.625L1246.5 738.75L1242.75 758.125L1237.75 779.375L1234.62 790.625L1232.12 800.625L1228.38 813.75L1225.25 823.75L1217.75 846.25L1214.62 855L1210.25 865.625L1206.5 876.25L1199 893.125L1194 903.125L1189 912.5L1184.62 921.875L1180.25 929.375L1176.5 936.875L1169 949.375L1164 956.25L1158.38 965L1154 971.25L1146.5 982.5L1137.75 995L1132.75 1001.88L1128.38 1007.5L1123.38 1014.38L1118.38 1020.62L1114.62 1025.62L1109 1032.5L1104.62 1038.12L1104 1039.38H1102.75L1101.5 1041.88L1095.88 1048.12L1087.12 1057.5L1085.88 1059.38H1084.62L1083.38 1061.88L1077.75 1068.12L1071.5 1074.38L1066.5 1078.75L1060.88 1084.38L1057.12 1087.5L1046.5 1098.12L1039.62 1103.75L1030.25 1111.25L1027.75 1113.12H1026.5V1114.38L1020.25 1118.75L1014 1124.38L1010.88 1125.62V1126.88L1000.25 1134.38L994 1140L984 1146.88L974.625 1153.12L965.875 1158.75L962.125 1161.25L953.375 1166.25L947.125 1170L940.25 1173.75L936.5 1176.25L932.75 1178.12L925.25 1182.5L915.25 1187.5L900.875 1195L892.75 1198.75L882.75 1203.12L873.375 1207.5L868.375 1210L848.375 1217.5L829.625 1223.75L815.25 1228.12L789 1235L758.375 1242.5L742.75 1245.62L733.375 1248.12L717.75 1250L704.625 1252.5L697.125 1253.12L672.75 1253.75L639.625 1255.62H608.375L585.25 1254.38L566.5 1253.12L552.125 1251.25L541.5 1249.38L527.75 1247.5L512.125 1244.38L505.25 1243.12L499 1241.88L487.125 1239.38L469.625 1235.62L458.375 1233.12L452.75 1231.25L439.625 1227.5L429.625 1223.75L407.125 1215.62L394 1210.62L384.625 1206.88L367.125 1199.38L347.75 1190L337.75 1184.38L329 1180L319.625 1174.38L305.875 1166.88L295.25 1160.62L289 1156.25L282.125 1151.88L272.75 1145.62L264 1139.38L255.25 1132.5L239 1120L229 1111.88L224 1107.5L220.25 1105V1103.75L217.75 1102.5L211.5 1096.88L206.5 1092.5L200.25 1086.88L189.625 1076.88L165.25 1052.5L160.875 1047.5L154.625 1040.62L143.375 1026.88L139 1021.25L121.5 997.5L115.25 988.75L107.125 976.875L98.375 963.125L89 948.125L82.125 936.25L77.75 927.5L71.5 916.25L65.25 904.375L58.375 889.375L55.25 881.25L52.125 875L44.625 855.625L44 852.5V848.125L45.875 843.125L49.625 838.125L61.5 826.25L66.5 821.875L317.75 570.625L322.125 565.625L328.375 559.375L333.375 555L339 549.375L339.625 548.125H340.875L342.125 545.625L348.375 539.375L354 535L358.375 533.75L364.625 534.375L370.875 536.875L379 544.375L388.375 553.75L393.375 558.125L585.25 750L590.25 754.375L592.75 755.625L599.625 747.5L745.875 601.25L750.875 596.875L758.375 588.75L763.375 583.75L767.75 580L770.875 576.875L779.625 567.5L837.125 510L841.5 506.25L752.125 505.625L741.5 503.125L735.25 500L731.5 492.5L730.875 483.75V451.25L731.5 418.75L735.25 411.25L739.625 407.5L742.75 406.25H998.375L1004.62 409.375L1007.75 411.875L1010.88 416.875L1011.5 418.75V671.25L1009.62 676.875L1006.5 680.625L1000.25 684.375L998.375 685H927.125L920.25 683.125L915.25 679.375L912.125 674.375L911.5 671.875V576.875L908.375 578.125L904.625 581.25L900.25 586.25L886.5 600L882.125 605L865.25 621.875L860.25 626.25L857.125 629.375L851.5 635.625L797.75 689.375L792.75 693.75L785.875 700.625L785.25 701.875H784L782.75 704.375L773.375 713.125L764.625 722.5L759 727.5L754.625 732.5L722.125 765L717.75 768.75L713.375 773.75L705.25 781.25L702.125 785L698.375 788.125L695.25 791.875L692.125 795L685.875 800.625L681.5 805.625L663.375 823.75L658.375 828.125L649.625 837.5L606.5 880.625L599.625 886.25L592.75 890H586.5L581.5 887.5L575.25 882.5L368.375 675.625L363.375 671.25L360.875 668.75L357.75 669.375L277.75 749.375H276.5V750.625H275.25L274 753.125L257.125 770L249.625 776.875L245.25 781.875L160.875 866.25L160.25 867.5V872.5L165.25 882.5L172.75 895.625L179.625 907.5L187.125 918.125L195.25 929.375L204 941.875L210.25 950L217.75 960L226.5 970.625L232.125 976.875L236.5 981.875L244.625 990.625L249 995.625L266.5 1013.12L273.375 1018.75L281.5 1026.25L286.5 1030.62L295.25 1038.12L307.75 1047.5L321.5 1057.5L332.125 1065L338.375 1069.38L345.875 1074.38L362.125 1085L378.375 1093.75L391.5 1100.62L415.875 1111.25L427.75 1116.25L455.25 1126.25L474.625 1133.12L486.5 1136.88L505.25 1141.88L530.875 1146.88L560.25 1151.88L572.75 1153.12L607.125 1155H645.25L686.5 1152.5L701.5 1150.62L725.25 1146.88L743.375 1143.12L767.125 1136.88L789 1130.62L812.125 1123.12L835.25 1113.75L850.875 1106.25L874 1095L887.75 1087.5L899.625 1080.62L905.25 1077.5L912.125 1073.12L919.625 1068.12L929.625 1060.62L937.125 1055.62L947.75 1047.5L957.75 1040L965.875 1033.12H967.125V1031.88L972.125 1028.12L978.375 1022.5L985.25 1016.88L990.25 1011.88H991.5L992.75 1009.38L999 1003.75L1010.25 992.5L1015.88 985.625L1024 976.875L1028.38 971.875L1034.62 964.375L1039 958.75L1045.25 950.625L1050.25 943.125H1051.5L1052.75 940L1057.12 934.375L1062.12 927.5L1069 917.5L1075.88 906.875L1082.75 895.625L1089 885.625L1094.62 875.625L1102.12 861.25L1109.62 845.625L1117.12 828.125L1121.5 815.625L1132.12 783.75L1137.75 763.75L1144 738.75L1148.38 716.25L1152.12 690.625L1154.62 664.375L1155.88 641.25V617.5L1154 583.75L1151.5 557.5L1146.5 526.25L1141.5 503.75L1137.75 489.375L1133.38 474.375L1125.88 451.875L1120.88 438.75L1113.38 419.375L1109.62 411.25L1103.38 396.875L1098.38 386.875L1091.5 373.75L1083.38 359.375L1077.75 350L1068.38 336.25L1060.88 325.625L1047.75 308.125L1042.12 301.25L1034.62 291.875L1027.75 283.125L1023.38 278.75L1019 273.75L1010.88 264.375L1004.62 258.125L1000.25 253.125L989.625 243.125L982.125 235.625L977.125 231.25L966.5 222.5L959.625 216.875L948.375 208.125L939 201.25L930.25 195L919.625 187.5L912.125 182.5L894.625 171.875L884 165.625L872.75 159.375L856.5 151.25L835.875 141.875L824 136.875L805.25 130L774 120L757.125 115L736.5 110L707.125 105.625L670.875 101.25L659.625 100.625L620.875 100L595.875 100.625L577.125 101.875L565.25 103.125L540.25 106.875L519.625 110.625L497.125 115.625L490.875 117.5L477.75 121.25L462.125 125.625L452.75 128.75L438.375 133.75L420.875 141.25L414.625 144.375L409 146.875L394 153.75L377.75 161.875L363.375 170L352.125 176.25L331.5 189.375L326.5 193.125L314.625 201.875L304 210L297.125 215L288.375 222.5L283.375 226.875L275.25 233.75L268.375 240.625L263.375 245L245.25 263.125L240.875 268.125L232.75 276.875L228.375 281.875L222.75 288.125L217.75 294.375L209 305.625L202.125 314.375L195.875 322.5L187.75 334.375L179.625 346.875L174 355.625L165.25 370.625L159 381.875L153.375 392.5L145.25 410.625L138.375 426.25L129.625 450L119.625 480.625L114.625 500.625L109.625 523.125L105.25 545.625L102.125 568.125L100.25 589.375L99.625 602.5L99 636.25L97.125 647.5L91.5 654.375L81.5 665L75.5 671L73.375 673.125L72.5 674L70.875 675.625L68.375 678.125L67 679.5L65.875 680.625L60.875 685.625L60.25 686.5L58.375 688.125L35.875 710.625L27.75 716.25L22.75 718.125L17.75 717.5L10.875 713.75L6.5 710L4 703.75L2.125 691.875L0.875 671.875L0.25 652.5V593.125L2.125 563.125L5.875 535L10.25 508.125L14 491.875L20.875 464.375L24.625 451.25L35.875 417.5L40.875 403.75L45.875 390.625L53.375 371.875L57.125 363.75L64 349.375L69 339.375L74 330.625L79 320.625L84 311.875L93.375 296.875L102.125 283.125L109 273.75L114.625 265.625L119.625 258.125L126.5 249.375L132.125 243.125L139 234.375L142.75 230L148.375 223.125L155.25 215.625L160.875 208.75L167.75 200.625L177.75 190L204 163.75L210.875 158.125L227.125 144.375L233.375 139.375L240.875 133.125L249 126.875L257.75 120L272.125 110L290.875 97.5L302.125 90.625L314.625 83.125L329 75L343.375 68.125L355.25 61.875L373.375 53.125L383.375 48.75L401.5 41.25L416.5 35.625L432.125 30.625L447.125 26.25L457.125 23.125L467.125 20.625L479 17.5L497.75 13.125L509 10.625L530.25 6.875L560.875 2.5L574.625 1.25L610.875 0Z" fill="#151414"/>
</svg>
